<?xml version="1.0" standalone="no"?>
<!DOCTYPE svg PUBLIC "-//W3C//DTD SVG 20010904//EN"
 "http://www.w3.org/TR/2001/REC-SVG-20010904/DTD/svg10.dtd">
<svg version="1.0" xmlns="http://www.w3.org/2000/svg"
 width="1080.000000pt" height="1080.000000pt" viewBox="0 0 1080.000000 1080.000000"
 preserveAspectRatio="xMidYMid meet">
<metadata>
Created by potrace 1.11, written by Peter Selinger 2001-2013
</metadata>
<g transform="translate(0.000000,1080.000000) scale(0.100000,-0.100000)"
fill="#000000" stroke="none">
<path d="M5130 10159 c-765 -60 -1583 -284 -2195 -599 -1118 -577 -1796 -1482
-2020 -2695 -102 -553 -108 -1294 -14 -1955 188 -1335 751 -2546 1672 -3600
227 -260 650 -662 907 -861 107 -84 282 -209 291 -209 4 0 -9 42 -28 93 -84
219 -219 609 -284 817 -165 527 -217 837 -150 891 20 17 26 17 56 5 18 -8 71
-44 119 -80 226 -172 566 -272 1097 -323 205 -19 877 -23 919 -5 21 9 12 11
-53 11 l-77 1 0 1042 0 1041 183 -179 c190 -187 262 -240 404 -297 206 -83
401 -83 593 1 76 33 202 119 283 192 310 283 330 690 53 1114 -64 99 -139 164
-266 230 -161 84 -317 112 -476 87 -200 -33 -347 -116 -619 -349 l-150 -129
-3 1194 -2 1193 -28 -14 c-175 -90 -453 -135 -663 -107 -229 30 -505 162 -673
320 -108 102 -227 278 -291 430 -100 238 -118 497 -49 738 51 179 175 396 319
559 135 153 424 290 682 325 53 7 142 9 223 6 171 -7 274 -32 468 -114 9 -4
12 123 12 616 l0 621 -67 -1 c-38 -1 -115 -6 -173 -10z"/>
<path d="M5678 9261 l3 -911 -113 83 c-299 221 -433 284 -651 306 -173 17
-339 -15 -517 -102 -119 -58 -190 -120 -279 -247 -208 -296 -244 -597 -106
-885 101 -210 233 -344 440 -448 202 -101 426 -117 639 -46 173 58 268 120
466 308 l120 113 0 -1196 c0 -658 2 -1196 4 -1196 2 0 46 20 97 44 318 151
636 151 948 1 185 -89 306 -190 403 -334 314 -469 342 -945 78 -1337 -86 -127
-255 -280 -415 -376 -311 -186 -689 -198 -1029 -33 -42 21 -78 36 -80 34 -2
-2 -6 -318 -8 -702 l-3 -697 92 0 c228 0 691 39 953 81 640 101 1179 280 1650
547 284 161 514 336 751 572 293 292 471 538 659 910 243 483 389 1038 431
1640 19 277 -3 921 -41 1228 -169 1344 -808 2310 -1936 2925 -648 353 -1543
585 -2409 623 l-150 7 3 -912z"/>
</g>
</svg>
